<svg width="96" height="96" xmlns="http://www.w3.org/2000/svg" xmlns:xlink="http://www.w3.org/1999/xlink" xml:space="preserve" overflow="hidden"><g transform="translate(-503 -313)"><path d="M547 326 547 348 587 348 587 326ZM581 342 553 342 553 332 581 332Z" stroke="#2196F3" fill="#2196F3"/><path d="M547 372 587 372 587 354 547 354ZM551 358 583 358 583 368 551 368Z" stroke="#2196F3" fill="#2196F3"/><path d="M547 396 587 396 587 378 547 378ZM551 382 583 382 583 392 551 392Z" stroke="#2196F3" fill="#2196F3"/><path d="M538 330 518 330C516.343 330 515 331.343 515 333 515 334.657 516.343 336 518 336L531.15 336C516.809 348.402 515.238 370.082 527.641 384.423 528.855 385.827 530.18 387.13 531.605 388.319 532.847 389.415 534.743 389.297 535.839 388.055 536.936 386.813 536.818 384.917 535.576 383.821 535.536 383.786 535.495 383.752 535.454 383.719 523.44 373.691 521.83 355.823 531.858 343.809 532.819 342.658 533.869 341.585 535 340.6L535 353C535 354.657 536.343 356 538 356 539.657 356 541 354.657 541 353L541 333C541 331.343 539.657 330 538 330Z" stroke="#2196F3" fill="#2196F3"/></g></svg>