<svg width="202" height="202" xmlns="http://www.w3.org/2000/svg" xmlns:xlink="http://www.w3.org/1999/xlink" xml:space="preserve" overflow="hidden"><g transform="translate(-1803 -1473)"><path d="M1803.5 1507C1803.5 1488.5 1818.5 1473.5 1837 1473.5L1971 1473.5C1989.5 1473.5 2004.5 1488.5 2004.5 1507L2004.5 1641C2004.5 1659.5 1989.5 1674.5 1971 1674.5L1837 1674.5C1818.5 1674.5 1803.5 1659.5 1803.5 1641Z" stroke="#2196F3" stroke-width="0.620735" stroke-miterlimit="8" fill="#2196F3" fill-rule="evenodd"/><g><g><g><path d="M50.4167 14.8958 50.4167 40.1042 96.25 40.1042 96.25 14.8958ZM89.375 33.2292 57.2917 33.2292 57.2917 21.7708 89.375 21.7708Z" stroke="#FFFFFF" stroke-width="1.14583" fill="#FFFFFF" transform="matrix(1.00909 0 0 1 1848 1518)"/><path d="M50.4167 67.6042 96.25 67.6042 96.25 46.9792 50.4167 46.9792ZM55 51.5625 91.6667 51.5625 91.6667 63.0208 55 63.0208Z" stroke="#FFFFFF" stroke-width="1.14583" fill="#FFFFFF" transform="matrix(1.00909 0 0 1 1848 1518)"/><path d="M50.4167 95.1042 96.25 95.1042 96.25 74.4792 50.4167 74.4792ZM55 79.0625 91.6667 79.0625 91.6667 90.5208 55 90.5208Z" stroke="#FFFFFF" stroke-width="1.14583" fill="#FFFFFF" transform="matrix(1.00909 0 0 1 1848 1518)"/><path d="M40.1042 19.4792 17.1875 19.4792C15.289 19.4792 13.75 21.0181 13.75 22.9167 13.75 24.8152 15.289 26.3542 17.1875 26.3542L32.2552 26.3542C15.8232 40.5654 14.0228 65.4067 28.234 81.8389 29.6251 83.4473 31.1442 84.9402 32.7766 86.303 34.1998 87.5594 36.3721 87.4241 37.6285 86.0009 38.8849 84.5776 38.7497 82.4053 37.3263 81.1489 37.2809 81.1087 37.2344 81.0699 37.1869 81.0322 23.4209 69.542 21.5762 49.0678 33.0663 35.3019 34.1673 33.9829 35.3712 32.7534 36.6667 31.625L36.6667 45.8333C36.6667 47.7319 38.2056 49.2708 40.1042 49.2708 42.0027 49.2708 43.5417 47.7319 43.5417 45.8333L43.5417 22.9167C43.5417 21.0181 42.0027 19.4792 40.1042 19.4792Z" stroke="#FFFFFF" stroke-width="1.14583" fill="#FFFFFF" transform="matrix(1.00909 0 0 1 1848 1518)"/></g></g></g></g></svg>